# xmcd
#
# Track frame offsets: 
#        150
#        20075
#        31947
#        57590
#        85032
#        103917
#        123225
#        146785
#        164460
#        185660
#        205520
#
# Disc length: 2977 seconds
#
# Revision: 0
# Processed by: cddbd v1.5.2PL0 Copyright (c) Steve Scherf et al.
# Submitted via: ExactAudioCopy v0.99pb3
#
DISCID=9a0b9f0b
DTITLE=Eddie Burks - Comin' Home
DYEAR=1993
DGENRE=Blues
TTITLE0=Dead Or Alive (I Want My Baby Back)
TTITLE1=I Ain't Mad At You Pretty Baby
TTITLE2=Plough Handle
TTITLE3=Sugar Hills Blues
TTITLE4=Baby What Is Wrong With You
TTITLE5=My Daddy's House
TTITLE6=Maxwell Street Jump
TTITLE7=I Know She Was A Dreamer
TTITLE8=I'm A Man (Manish Boy)
TTITLE9=Worried Life Blues
TTITLE10=Minnie Sue
EXTD=
EXTT0=
EXTT1=
EXTT2=
EXTT3=
EXTT4=
EXTT5=
EXTT6=
EXTT7=
EXTT8=
EXTT9=
EXTT10=
PLAYORDER=
